<svg width="80" height="28" viewBox="0 0 80 28" fill="none" xmlns="http://www.w3.org/2000/svg">
<path d="M0 27.4623V0H12.682C15.7205 0 18.0059 0.665752 19.5383 1.99726C21.0443 3.30315 21.7973 5.01875 21.7973 7.14403C21.7973 9.83265 20.3177 11.6635 17.3586 12.6365V12.7517C18.9438 13.2126 20.212 14.0448 21.1632 15.2483C22.1407 16.4518 22.6295 17.8857 22.6295 19.5501C22.6295 21.9826 21.7973 23.8903 20.1327 25.273C18.4154 26.7325 16.0375 27.4623 12.9991 27.4623H0ZM5.74655 15.1715V22.8532H12.365C13.7389 22.8532 14.8221 22.5203 15.6148 21.8546C16.4074 21.1632 16.8037 20.2542 16.8037 19.1276C16.8037 17.8729 16.3678 16.8999 15.4959 16.2085C14.6504 15.5171 13.5539 15.1715 12.2065 15.1715H5.74655ZM5.74655 11.0617H11.9687C13.2369 11.0617 14.2541 10.7801 15.0203 10.2167C15.7865 9.6278 16.1696 8.80841 16.1696 7.75857C16.1696 6.73434 15.7997 5.94056 15.0599 5.37723C14.3466 4.8139 13.3558 4.53224 12.0876 4.53224H5.74655V11.0617Z" fill="black"/>
<path d="M30.7639 7.75857V10.9081H30.8828C31.5169 9.75583 32.217 8.91084 32.9832 8.37311C33.7494 7.80978 34.7138 7.52812 35.8763 7.52812C36.4312 7.52812 36.8539 7.57933 37.1445 7.68176V12.2524H37.0256C35.2026 12.0732 33.7362 12.4572 32.6265 13.4047C31.5169 14.3521 30.962 15.8372 30.962 17.8601V27.4623H25.5722V7.75857H30.7639Z" fill="black"/>
<path d="M57.4987 27.4623H52.3069V25.1578H52.188C51.4483 26.1308 50.6292 26.8477 49.7309 27.3086C48.859 27.7695 47.7361 28 46.3622 28C44.1429 28 42.4123 27.3599 41.1705 26.0796C39.9287 24.7993 39.3078 23.0709 39.3078 20.8944V7.75857H44.6581V20.011C44.6581 22.3923 45.781 23.583 48.0267 23.583C49.2685 23.583 50.2593 23.1733 50.9991 22.3539C51.7389 21.5345 52.1088 20.4591 52.1088 19.1276V7.75857H57.4987V27.4623Z" fill="black"/>
<path d="M59.796 11.2154V7.75857H62.6099V1.61317H67.8808V7.75857H71.3684V11.2154H67.8808V21.6626C67.8808 22.9685 68.5546 23.6214 69.902 23.6214L71.4873 23.583V27.4239C70.6683 27.4751 69.5454 27.5007 68.1186 27.5007C66.5598 27.5007 65.252 27.1422 64.1951 26.4252C63.1383 25.6827 62.6099 24.4664 62.6099 22.7764V11.2154H59.796Z" fill="black"/>
<path d="M74.2138 27.4623V21.893H80V27.4623H74.2138Z" fill="black"/>
</svg>
