<svg viewBox="0 0 147 18" xmlns="http://www.w3.org/2000/svg"><path fill-rule="evenodd" clip-rule="evenodd" d="M110.71 3.231L107.215 0l-6.135 5.747L94.945 0 91.45 3.231l6.158 5.77-6.158 5.768L94.945 18l6.135-5.747L107.215 18l3.495-3.231L104.553 9l6.157-5.769zM67.242.177H57.61L52.8 4.617V.168H47.78v17.528h5.022V11.2l6.877-6.349h2.543v12.83h5.021V.176zM45.404.174V11.18H30.839v1.985h14.48v4.497H26.006V4.585L30.694.174h14.71zM32.71 4.671L30.84 6.432v.251h9.732V4.671H32.71zm41.853 2.006h14.41v3.563h.003v6.851h-.004v.6h-19.27v-4.497h14.442v-2.02h-9.58v.01h-4.832v-6.54L74.418.232h14.555v4.496H76.436l-1.872 1.762v.186zM14.781.133v4.411L19.59.134h4.925v17.528h-5.022V6.832l-4.712 4.32v6.51H9.758V6.832l-4.737 4.409v6.42H0V.134h5.022v4.5l4.834-4.5h4.925zm110.934.114l-7.934.02-4.555 4.288v13.107h4.948v-5.215h7.541c3.576 0 6.485-2.772 6.485-6.1s-2.909-6.1-6.485-6.1zm0 7.577h-2.874v.018h-4.667v-1.33l1.673-1.64h5.861V4.87h.007c.823 0 1.518.712 1.518 1.478s-.695 1.477-1.518 1.477zM142 0a5 5 0 1 1 0 10 5 5 0 0 1 0-10zm0 .667a4.333 4.333 0 1 0 0 8.666 4.333 4.333 0 0 0 0-8.666zm-.614 4.932v2.068h-.836V2.57h1.76c.577 0 1.022.143 1.335.429.313.286.469.649.469 1.089 0 .342-.104.65-.312.924-.207.274-.526.452-.957.535l1.35 2.12h-1.02l-1.276-2.068h-.513zm0-2.376h.924c.318 0 .555.075.711.227.157.152.235.363.235.634 0 .272-.078.483-.235.635-.156.151-.393.227-.711.227h-.924V3.223z"></path></svg>